<svg xmlns="http://www.w3.org/2000/svg" xml:space="preserve" id="Layer_1" x="0" y="0" version="1.1" viewBox="0 0 1200 1200">
  <path fill="#F48846" d="m759.405 579.668 245.621-178.454c-61.493-84.492-148.778-149.006-250.288-181.965l-93.839 288.805c39.954 12.973 74.304 38.36 98.506 71.614z"/>
  <path fill="#FFC84B" d="M600 498.447c21.256 0 41.72 3.379 60.899 9.607l93.839-288.805C706.009 203.428 654.003 194.876 600 194.876s-106.009 8.551-154.738 24.373L539.1 508.054c19.18-6.227 39.644-9.607 60.9-9.607z"/>
  <path fill="#A6C44C" d="M539.101 508.055 445.262 219.25c-101.51 32.959-188.795 97.473-250.288 181.965l245.62 178.454c24.203-33.255 58.553-58.642 98.507-71.614z"/>
  <path fill="#EA4840" d="M797.036 695.483h303.571c0-109.977-35.466-211.669-95.581-294.269L759.405 579.668c23.662 32.512 37.631 72.529 37.631 115.815z"/>
  <path fill="#4DC04D" d="m440.594 579.668-245.62-178.454c-60.116 82.6-95.582 184.292-95.582 294.269h303.571c0-43.286 13.97-83.303 37.631-115.815z"/>
  <path fill="#F46C46" d="m725.186 604.531 34.22-24.863c-24.202-33.255-58.553-58.641-98.506-71.614l-13.073 40.236c31.375 10.189 58.351 30.125 77.359 56.241z"/>
  <path fill="#FFA83A" d="M600 540.746c16.693 0 32.764 2.654 47.826 7.545l13.073-40.236c-19.18-6.228-39.644-9.607-60.899-9.607s-41.72 3.379-60.899 9.607l13.073 40.236c15.062-4.891 31.133-7.545 47.826-7.545z"/>
  <path fill="#8FA841" d="m552.174 548.291-13.073-40.236c-39.953 12.973-74.303 38.359-98.506 71.614l34.22 24.863c19.007-26.117 45.983-46.053 77.359-56.241z"/>
  <path fill="#CC3C35" d="m759.405 579.668-34.22 24.863c18.582 25.531 29.553 56.958 29.553 90.952h42.298c0-43.286-13.969-83.303-37.631-115.815z"/>
  <path fill="#3E9C3E" d="M445.262 695.483c0-33.994 10.971-65.421 29.552-90.952l-34.22-24.863c-23.661 32.511-37.631 72.529-37.631 115.815h42.299z"/>
  <path fill="#FFF" d="M600 695.483zM600 695.483z"/>
  <path fill="#009DDF" d="M600 372.6s-38.691 301.515-38.691 322.883c0 21.369 17.323 38.691 38.691 38.691V372.6z"/>
  <path fill="#0078AB" d="M638.691 695.483c0-21.366-38.685-322.829-38.691-322.883v361.574c21.368.001 38.691-17.321 38.691-38.691zM600 672.273c-12.818 0-23.21 10.392-23.21 23.21 0 12.819 10.392 23.21 23.21 23.21v-46.42z"/>
  <path fill="#009DDF" d="M623.21 695.483c0-12.818-10.392-23.21-23.21-23.21v46.42c12.818 0 23.21-10.39 23.21-23.21z"/>
  <path fill="#4DC04D" d="M99.393 835.906H268.61v169.217H99.393z"/>
  <ellipse cx="154.413" cy="898.92" fill="#2B3C4D" rx="8.48" ry="11.498"/>
  <ellipse cx="213.589" cy="898.92" fill="#2B3C4D" rx="8.48" ry="11.498"/>
  <path fill="#2B3C4D" d="M183.814 958.446c-22.55 0-34.694-19.657-35.2-20.493a2.497 2.497 0 0 1 4.272-2.588c.11.181 11.239 18.087 30.928 18.087 19.765 0 30.817-17.903 30.925-18.084a2.498 2.498 0 0 1 4.275 2.585c-.506.836-12.65 20.493-35.2 20.493z"/>
  <path fill="#A6C44C" d="M307.392 835.906h169.217v169.217H307.392z"/>
  <ellipse cx="362.413" cy="898.92" fill="#2B3C4D" rx="8.48" ry="11.498"/>
  <ellipse cx="421.588" cy="898.92" fill="#2B3C4D" rx="8.48" ry="11.498"/>
  <path fill="#2B3C4D" d="M391.813 955.73c-22.027 0-34.122-9.51-34.625-9.915-1.076-.862-1.248-2.434-.384-3.509s2.43-1.251 3.505-.388c.111.088 11.344 8.817 31.504 8.817 20.289 0 31.39-8.725 31.5-8.813a2.496 2.496 0 1 1 3.126 3.892c-.504.407-12.599 9.916-34.626 9.916z"/>
  <path fill="#F48846" d="M723.391 835.906h169.217v169.217H723.391z"/>
  <ellipse cx="778.412" cy="898.92" fill="#2B3C4D" rx="8.48" ry="11.498"/>
  <ellipse cx="837.587" cy="898.92" fill="#2B3C4D" rx="8.48" ry="11.498"/>
  <path fill="#2B3C4D" d="M840.872 951.049a2.49 2.49 0 0 1-1.194-.305c-.107-.059-11.464-6.063-31.864-6.063-20.403 0-31.76 6.004-31.872 6.065a2.505 2.505 0 0 1-3.385-1.005 2.5 2.5 0 0 1 .995-3.383c.5-.271 12.471-6.672 34.262-6.672 21.788 0 33.759 6.401 34.259 6.672a2.5 2.5 0 0 1-1.201 4.691z"/>
  <path fill="#EA4840" d="M931.391 835.906h169.217v169.217H931.391z"/>
  <ellipse cx="986.575" cy="898.92" fill="#2B3C4D" rx="8.48" ry="11.498"/>
  <ellipse cx="1045.75" cy="898.92" fill="#2B3C4D" rx="8.48" ry="11.498"/>
  <path fill="#2B3C4D" d="M1049.041 953.483a2.499 2.499 0 0 1-2.243-1.395c-.363-.729-8.723-16.96-30.823-16.96-22.127 0-30.479 16.271-30.823 16.965a2.498 2.498 0 0 1-4.48-2.207c.396-.807 9.977-19.752 35.303-19.752 25.329 0 34.91 18.945 35.305 19.752a2.495 2.495 0 0 1-2.239 3.597z"/>
  <path fill="#FFC84B" d="M515.392 835.906h169.217v169.217H515.392z"/>
  <ellipse cx="570.412" cy="898.92" fill="#2B3C4D" rx="8.48" ry="11.498"/>
  <ellipse cx="629.588" cy="898.92" fill="#2B3C4D" rx="8.48" ry="11.498"/>
  <path fill="#2B3C4D" d="M632.625 950.616h-65.25a2.5 2.5 0 0 1 0-5h65.25a2.499 2.499 0 1 1 0 5z"/>
</svg>
