<svg xmlns="http://www.w3.org/2000/svg" xml:space="preserve" id="botao" x="0" y="0" version="1.1" viewBox="0 0 874 161.749">
  <g id="botao3">
    <g id="botao3_1_">
      <path fill="#90C57E" d="M590.92 13.5h273.506V127H590.92z"/>
      <path fill="none" d="M608.172 51.735h239v37.03h-239z"/>
      <text transform="translate(614.178 63.031)"><tspan x="0" y="0" fill="#FFF" font-family="'Catamaran-Bold'" font-size="16">3. O que você faria se as taxas de </tspan><tspan x="36.76" y="19.2" fill="#FFF" font-family="'Catamaran-Bold'" font-size="16">inflação fossem altas?</tspan></text>
    </g>
    <g id="info3">
      <path fill="#FFF" stroke="#90C57E" stroke-miterlimit="10" stroke-width="1.809" d="M48.253 10.576H822v140.596H48.253z"/>
      <path fill="none" d="M76.091 38.714h720.495V136.5H76.091z"/>
      <text transform="translate(76.091 49.994)"><tspan x="0" y="0" font-family="'Catamaran-Regular'" font-size="16">Uma maneira de tentar minimizar o efeito da inflação nas suas economias e diversificando seus </tspan><tspan x="0" y="19.2" font-family="'Catamaran-Regular'" font-size="16">investimentos, ou seja, ao invés de aplicar todo o dinheiro das suas economias em uma poupança, você pode </tspan><tspan x="0" y="38.4" font-family="'Catamaran-Regular'" font-size="16">investir em outros itens. Em tempos de inflação crescente, procure por investimentos que enfatizem valores </tspan><tspan x="0" y="57.6" font-family="'Catamaran-Regular'" font-size="16">de longo prazo básicos, que, provavelmente, subirão com a inflação. Busque investir em pertences, como os </tspan><tspan x="0" y="76.8" font-family="'Catamaran-Regular'" font-size="16">imóveis, pois seus valores tendem a subir junto com a inflação.            </tspan></text>
    </g>
    <g id="mao4_6_">
      <path fill="#FFF" d="M723.982 118.916a.445.445 0 0 1-.651-.309l-.645-3.792a.432.432 0 0 1 .358-.506.441.441 0 0 1 .516.357l.648 3.79a.436.436 0 0 1-.226.46zM727.484 119.716a.447.447 0 0 1-.131.047.44.44 0 0 1-.328-.075.442.442 0 0 1-.115-.619l2.223-3.138a.39.39 0 0 1 .15-.133.41.41 0 0 1 .133-.045.427.427 0 0 1 .326.074.44.44 0 0 1 .115.618l-2.221 3.138a.423.423 0 0 1-.152.133zM733.184 122.112a.407.407 0 0 1-.133.043l-3.789.649a.44.44 0 0 1-.506-.359.443.443 0 0 1 .354-.518l3.793-.648a.441.441 0 0 1 .504.358.445.445 0 0 1-.223.475zM720.936 120.835a.43.43 0 0 1-.459-.029l-3.141-2.223a.442.442 0 0 1-.178-.283.438.438 0 0 1 .076-.325.447.447 0 0 1 .156-.146.475.475 0 0 1 .135-.044.435.435 0 0 1 .326.073l3.137 2.224c.199.14.244.412.105.61a.415.415 0 0 1-.157.143zM720.143 124.34a.4.4 0 0 1-.131.045l-3.791.647a.436.436 0 0 1-.504-.357.442.442 0 0 1 .354-.519l3.791-.648a.438.438 0 0 1 .326.075.447.447 0 0 1-.043.757h-.002z"/>
      <path fill="#414141" d="M740.436 150.567c-.221.12-.463.201-.713.244l-9.277 1.585a2.346 2.346 0 0 1-1.771-.403 2.353 2.353 0 0 1-.969-1.537 1.685 1.685 0 0 0-.609-1.053c-.219-.171-.52-.415-.705-.573-4.314-3.705-7.076-6.542-8.953-9.196a2.773 2.773 0 0 1-.451-.992c-.229-1.012.141-1.982.988-2.6.107-.078.219-.146.332-.208.803-.427 1.744-.433 2.455-.012l3.523 2.046-2.428-14.373a2.753 2.753 0 0 1 2.25-3.177c.76-.13 1.486.029 2.094.46a2.734 2.734 0 0 1 1.125 1.783l.967 5.658c.184-.124.355-.241.535-.335.258-.139.535-.234.828-.284 1.152-.197 2.314.338 2.889 1.332a3.74 3.74 0 0 1 .684-.486 2.73 2.73 0 0 1 .826-.282c1.307-.223 2.598.494 3.07 1.704.197-.148.383-.28.584-.388.26-.136.537-.231.828-.28a2.803 2.803 0 0 1 2.09.46 2.716 2.716 0 0 1 1.129 1.781l.873 5.112c.01.056.012.115.004.176l.123.875c.217 1.263.26 3.219.123 5.232a9.42 9.42 0 0 1-1.111 3.854 1.673 1.673 0 0 0-.164 1.053l.057.327a2.368 2.368 0 0 1-1.226 2.497z"/>
      <path fill="#FFF" d="M718.922 136.984c-.059.034-.119.07-.176.112-.248.181-.639.583-.484 1.258.039.179.121.357.24.527 1.816 2.565 4.51 5.326 8.742 8.959.133.115.367.308.666.544a2.972 2.972 0 0 1 1.078 1.827 1.085 1.085 0 0 0 1.236.899l9.277-1.585a1.069 1.069 0 0 0 .873-1.232l-.057-.327a2.96 2.96 0 0 1 .303-1.89 8.218 8.218 0 0 0 .957-3.326c.129-1.924.086-3.769-.111-4.936l-.234-1.679-.764-4.474a1.453 1.453 0 0 0-1.672-1.182 1.449 1.449 0 0 0-1.225 1.677l.672 3.934a.65.65 0 0 1-.533.754.652.652 0 0 1-.479-.104.65.65 0 0 1-.318-.464l-.629-3.904-.297-1.742a1.443 1.443 0 0 0-.59-.938 1.444 1.444 0 0 0-1.08-.248c-.189.033-.338.08-.479.156a1.438 1.438 0 0 0-.746 1.521l.75 4.403c.053.303-.074.584-.328.719a.591.591 0 0 1-.199.066.645.645 0 0 1-.486-.109.653.653 0 0 1-.266-.423l-.977-5.713a1.449 1.449 0 0 0-1.67-1.184 1.448 1.448 0 0 0-1.227 1.677l.758 4.436a.65.65 0 0 1-1.017.642.657.657 0 0 1-.27-.422l-2.121-12.432c-.066-.38-.277-.713-.592-.936s-.699-.312-1.078-.247a1.438 1.438 0 0 0-1.224 1.677l2.447 14.337.109.604a1.03 1.03 0 0 1-.43 1.037 1.029 1.029 0 0 1-1.119.048l-4.051-2.352c-.324-.192-.775-.177-1.179.035z"/>
    </g>
  </g>
  <g id="botao2">
    <g id="botoa2">
      <path fill="#90C57E" d="M299.586 13.5h273.505V127H299.586z"/>
      <path fill="none" d="M316.839 43.638h239v53.224h-239z"/>
      <text transform="translate(324.444 54.934)"><tspan x="0" y="0" fill="#FFF" font-family="'Catamaran-Bold'" font-size="16">2. O que pode acontecer se você </tspan><tspan x="-.607" y="19.2" fill="#FFF" font-family="'Catamaran-Bold'" font-size="16">poupar e não prestar atenção na </tspan><tspan x="80.543" y="38.4" fill="#FFF" font-family="'Catamaran-Bold'" font-size="16">inflação?</tspan></text>
    </g>
    <g id="info2">
      <path fill="#FFF" stroke="#90C57E" stroke-miterlimit="10" stroke-width="1.538" d="M48.253 30.076H822v101.597H48.253z"/>
      <path fill="none" d="M76.091 55.214h720.495v59.758H76.091z"/>
      <text transform="translate(76.091 66.494)"><tspan x="0" y="0" font-family="'Catamaran-Regular'" font-size="16">Quando as pessoas não prestam atenção a inflação, elas podem perder o valor de suas poupanças, mesmo </tspan><tspan x="0" y="19.2" font-family="'Catamaran-Regular'" font-size="16">que as taxas de juros subam. Isso acontece porque o custo do item ou atividade para que você está </tspan><tspan x="0" y="38.4" font-family="'Catamaran-Regular'" font-size="16">poupando pode aumentar mais rápido que suas economias.      </tspan></text>
    </g>
    <g id="mao4_5_">
      <path fill="#FFF" d="M432.649 118.916a.352.352 0 0 1-.132.046.442.442 0 0 1-.518-.355l-.646-3.792a.434.434 0 0 1 .358-.506.443.443 0 0 1 .518.357l.648 3.79a.441.441 0 0 1-.228.46zM436.152 119.716a.46.46 0 0 1-.133.047.444.444 0 0 1-.328-.075.437.437 0 0 1-.188-.292.434.434 0 0 1 .072-.327l2.223-3.138a.398.398 0 0 1 .15-.133.445.445 0 0 1 .461.029c.207.147.254.42.115.618l-2.223 3.138a.422.422 0 0 1-.149.133zM441.849 122.112a.389.389 0 0 1-.131.043l-3.79.649a.439.439 0 0 1-.506-.359.444.444 0 0 1 .224-.474.422.422 0 0 1 .131-.044l3.791-.648a.443.443 0 0 1 .506.358.443.443 0 0 1-.225.475zM429.603 120.835a.386.386 0 0 1-.134.045.432.432 0 0 1-.327-.074l-3.139-2.223a.43.43 0 0 1-.178-.283.428.428 0 0 1 .074-.325.458.458 0 0 1 .157-.146.465.465 0 0 1 .135-.044.436.436 0 0 1 .326.073l3.138 2.224c.197.14.244.412.104.61a.412.412 0 0 1-.156.143zM428.809 124.34a.386.386 0 0 1-.13.045l-3.792.647a.438.438 0 0 1-.505-.357.444.444 0 0 1 .224-.475.446.446 0 0 1 .132-.044l3.789-.648a.444.444 0 0 1 .508.358.445.445 0 0 1-.226.474z"/>
      <path fill="#414141" d="M449.103 150.567c-.223.12-.463.201-.713.244l-9.279 1.585a2.348 2.348 0 0 1-1.771-.403 2.355 2.355 0 0 1-.968-1.537 1.681 1.681 0 0 0-.61-1.053c-.219-.171-.52-.415-.705-.573-4.313-3.705-7.074-6.542-8.953-9.196a2.788 2.788 0 0 1-.45-.992c-.229-1.012.141-1.982.988-2.6.107-.078.218-.146.331-.208.805-.427 1.744-.433 2.457-.012l3.523 2.046-2.43-14.373a2.753 2.753 0 0 1 2.25-3.177c.762-.13 1.486.029 2.095.46a2.727 2.727 0 0 1 1.125 1.783l.966 5.658c.186-.124.355-.241.535-.335.258-.139.535-.234.828-.284 1.153-.197 2.315.338 2.889 1.332.223-.192.442-.357.685-.486.26-.138.538-.233.827-.282 1.305-.223 2.596.494 3.068 1.704.197-.148.384-.28.585-.388.259-.136.536-.231.828-.28a2.8 2.8 0 0 1 2.089.46 2.716 2.716 0 0 1 1.129 1.781l.873 5.112c.01.056.012.115.006.176l.122.875c.216 1.263.261 3.219.124 5.232a9.422 9.422 0 0 1-1.112 3.854 1.653 1.653 0 0 0-.163 1.053l.057.327a2.371 2.371 0 0 1-1.226 2.497z"/>
      <path fill="#FFF" d="M427.588 136.984c-.06.034-.12.07-.177.112-.248.181-.639.583-.484 1.258.04.179.121.357.241.527 1.815 2.565 4.509 5.326 8.741 8.959.133.115.369.308.666.544a2.972 2.972 0 0 1 1.078 1.827c.051.293.208.546.441.712.232.169.512.234.796.187l9.278-1.585a1.067 1.067 0 0 0 .871-1.232l-.057-.327a2.96 2.96 0 0 1 .303-1.89 8.156 8.156 0 0 0 .957-3.326c.129-1.924.088-3.769-.111-4.936l-.233-1.679-.764-4.474a1.452 1.452 0 0 0-1.672-1.182 1.54 1.54 0 0 0-.476.157 1.447 1.447 0 0 0-.75 1.52l.672 3.934a.645.645 0 0 1-.533.754.65.65 0 0 1-.478-.104.654.654 0 0 1-.319-.464l-.628-3.904-.297-1.742a1.448 1.448 0 0 0-1.671-1.186 1.441 1.441 0 0 0-1.225 1.677l.752 4.403c.052.303-.076.584-.33.719a.596.596 0 0 1-.197.066.648.648 0 0 1-.753-.532l-.976-5.713a1.45 1.45 0 0 0-1.672-1.184 1.448 1.448 0 0 0-1.226 1.677l.758 4.436a.647.647 0 0 1-.534.754.638.638 0 0 1-.484-.112.65.65 0 0 1-.268-.422l-2.123-12.432c-.066-.38-.275-.713-.591-.936s-.7-.312-1.079-.247a1.44 1.44 0 0 0-1.225 1.677l2.448 14.337.108.604a1.03 1.03 0 0 1-.428 1.037 1.03 1.03 0 0 1-1.121.048l-4.051-2.352c-.322-.192-.773-.177-1.177.035z"/>
    </g>
  </g>
  <g id="botao1">
    <g id="bota1">
      <path fill="#90C57E" d="M8.253 13.5h273.505V127H8.253z"/>
      <path fill="none" d="M25.505 37.376h239v72.485h-239z"/>
      <text transform="translate(46.11 48.672)"><tspan x="0" y="0" fill="#FFF" font-family="'Catamaran-Bold'" font-size="16">1. Por que você precisa saber </tspan><tspan x="-5.728" y="19.2" fill="#FFF" font-family="'Catamaran-Bold'" font-size="16">sobre taxas de inflação no seu </tspan><tspan x="3.336" y="38.4" fill="#FFF" font-family="'Catamaran-Bold'" font-size="16">país? E no resto do mundo?</tspan></text>
    </g>
    <g id="info1">
      <path fill="#FFF" stroke="#90C57E" stroke-miterlimit="10" stroke-width="1.552" d="M48.253 29.124H822v103.5H48.253z"/>
      <path fill="none" d="M76.091 51.262h720.495v70.362H76.091z"/>
      <text transform="translate(76.091 62.541)"><tspan x="0" y="0" font-family="'Catamaran-Regular'" font-size="16">Você precisa estar atento à inflação local porque ela pode destruir o valor de suas poupanças. É importante </tspan><tspan x="0" y="19.2" font-family="'Catamaran-Regular'" font-size="16">olhar para a alta inflação em outros países para ver como a inflação pode afetar você, caso a taxa de inflação </tspan><tspan x="0" y="38.4" font-family="'Catamaran-Regular'" font-size="16">de seu país comece a subir.</tspan></text>
    </g>
    <g id="mao4_4_">
      <path fill="#FFF" d="M141.315 118.916a.443.443 0 0 1-.65-.309l-.646-3.792a.434.434 0 0 1 .358-.506.441.441 0 0 1 .517.357l.648 3.79a.44.44 0 0 1-.227.46zM144.818 119.716a.453.453 0 0 1-.132.047.443.443 0 0 1-.328-.075.44.44 0 0 1-.115-.619l2.223-3.138a.427.427 0 0 1 .283-.178.43.43 0 0 1 .327.074c.208.147.254.42.115.618l-2.222 3.138a.437.437 0 0 1-.151.133zM150.516 122.112a.394.394 0 0 1-.132.043l-3.79.649a.439.439 0 0 1-.506-.359.444.444 0 0 1 .354-.518l3.792-.648a.442.442 0 0 1 .505.358.44.44 0 0 1-.223.475zM138.269 120.835a.432.432 0 0 1-.46-.029l-3.14-2.223a.434.434 0 0 1-.103-.608.45.45 0 0 1 .157-.146.465.465 0 0 1 .135-.044.435.435 0 0 1 .326.073l3.137 2.224c.198.14.244.412.104.61a.412.412 0 0 1-.156.143zM137.476 124.34a.394.394 0 0 1-.13.045l-3.792.647a.438.438 0 0 1-.505-.357.443.443 0 0 1 .355-.519l3.79-.648a.443.443 0 0 1 .508.358.445.445 0 0 1-.224.474h-.002z"/>
      <path fill="#414141" d="M157.769 150.567c-.222.12-.463.201-.713.244l-9.278 1.585a2.346 2.346 0 0 1-1.771-.403 2.351 2.351 0 0 1-.968-1.537 1.686 1.686 0 0 0-.61-1.053c-.219-.171-.52-.415-.705-.573-4.313-3.705-7.075-6.542-8.953-9.196a2.79 2.79 0 0 1-.451-.992c-.229-1.012.141-1.982.988-2.6.107-.078.218-.146.332-.208.804-.427 1.744-.433 2.456-.012l3.523 2.046-2.429-14.373a2.753 2.753 0 0 1 2.25-3.177c.761-.13 1.486.029 2.094.46a2.734 2.734 0 0 1 1.125 1.783l.966 5.658c.185-.124.355-.241.535-.335a2.7 2.7 0 0 1 .828-.284c1.153-.197 2.315.338 2.889 1.332.223-.192.442-.357.685-.486.26-.138.538-.233.827-.282 1.306-.223 2.597.494 3.069 1.704.197-.148.383-.28.584-.388.259-.136.537-.231.828-.28a2.799 2.799 0 0 1 2.089.46 2.715 2.715 0 0 1 1.128 1.781l.874 5.112c.01.056.012.115.005.176l.123.875c.216 1.263.26 3.219.124 5.232a9.407 9.407 0 0 1-1.112 3.854 1.66 1.66 0 0 0-.164 1.053l.057.327a2.368 2.368 0 0 1-1.225 2.497z"/>
      <path fill="#FFF" d="M136.255 136.984c-.06.034-.12.07-.176.112-.248.181-.639.583-.485 1.258.04.179.122.357.241.527 1.815 2.565 4.509 5.326 8.741 8.959.133.115.369.308.667.544a2.972 2.972 0 0 1 1.078 1.827c.05.293.208.546.442.712.232.169.512.234.795.187l9.278-1.585a1.067 1.067 0 0 0 .872-1.232l-.057-.327a2.959 2.959 0 0 1 .302-1.89 8.204 8.204 0 0 0 .958-3.326c.129-1.924.087-3.769-.111-4.936l-.234-1.679-.764-4.474a1.452 1.452 0 0 0-1.672-1.182 1.448 1.448 0 0 0-1.225 1.677l.672 3.934a.646.646 0 0 1-.533.754.65.65 0 0 1-.478-.104.652.652 0 0 1-.319-.464l-.628-3.904-.297-1.742a1.448 1.448 0 0 0-1.671-1.186 1.441 1.441 0 0 0-1.225 1.677l.751 4.403c.052.303-.076.584-.33.719a.579.579 0 0 1-.198.066.65.65 0 0 1-.753-.532l-.976-5.713a1.45 1.45 0 0 0-1.671-1.184 1.448 1.448 0 0 0-1.226 1.677l.758 4.436a.647.647 0 0 1-.534.754.642.642 0 0 1-.485-.112.65.65 0 0 1-.268-.422l-2.123-12.432a1.443 1.443 0 0 0-.591-.936 1.44 1.44 0 0 0-1.079-.247 1.441 1.441 0 0 0-1.225 1.677l2.448 14.337.109.604a1.03 1.03 0 0 1-.429 1.037 1.029 1.029 0 0 1-1.12.048l-4.051-2.352c-.324-.192-.775-.177-1.178.035z"/>
    </g>
  </g>
</svg>
